<mxfile host="app.diagrams.net" agent="Mozilla/5.0 (Windows NT 10.0; Win64; x64) AppleWebKit/537.36 (KHTML, like Gecko) Chrome/133.0.0.0 Safari/537.36" version="26.0.16">
  <diagram name="Página-1" id="vuPgtb5DDe-6d6AMIZnv">
    <mxGraphModel dx="1434" dy="746" grid="1" gridSize="10" guides="1" tooltips="1" connect="1" arrows="1" fold="1" page="1" pageScale="1" pageWidth="2910" pageHeight="1030" math="0" shadow="0">
      <root>
        <mxCell id="0" />
        <mxCell id="1" parent="0" />
        <mxCell id="IwLEYxxJopyAIarnTmrt-1" value="Validar si una tecnologia esta contratada en una capita o pgp" style="swimlane;html=1;childLayout=stackLayout;resizeParent=1;resizeParentMax=0;horizontal=1;startSize=20;horizontalStack=0;whiteSpace=wrap;" vertex="1" parent="1">
          <mxGeometry x="130" y="40" width="1660" height="720" as="geometry" />
        </mxCell>
        <mxCell id="IwLEYxxJopyAIarnTmrt-2" value="ZonaSer Prestador" style="swimlane;html=1;startSize=20;horizontal=0;" vertex="1" parent="IwLEYxxJopyAIarnTmrt-1">
          <mxGeometry y="20" width="1660" height="290" as="geometry" />
        </mxCell>
        <mxCell id="IwLEYxxJopyAIarnTmrt-7" style="edgeStyle=orthogonalEdgeStyle;rounded=0;orthogonalLoop=1;jettySize=auto;html=1;" edge="1" parent="IwLEYxxJopyAIarnTmrt-2" source="IwLEYxxJopyAIarnTmrt-5" target="IwLEYxxJopyAIarnTmrt-6">
          <mxGeometry relative="1" as="geometry" />
        </mxCell>
        <mxCell id="IwLEYxxJopyAIarnTmrt-5" value="" style="points=[[0.145,0.145,0],[0.5,0,0],[0.855,0.145,0],[1,0.5,0],[0.855,0.855,0],[0.5,1,0],[0.145,0.855,0],[0,0.5,0]];shape=mxgraph.bpmn.event;html=1;verticalLabelPosition=bottom;labelBackgroundColor=#ffffff;verticalAlign=top;align=center;perimeter=ellipsePerimeter;outlineConnect=0;aspect=fixed;outline=standard;symbol=general;fillColor=#f8cecc;strokeColor=#b85450;" vertex="1" parent="IwLEYxxJopyAIarnTmrt-2">
          <mxGeometry x="40" y="60" width="50" height="50" as="geometry" />
        </mxCell>
        <mxCell id="IwLEYxxJopyAIarnTmrt-6" value="Seleccionar servicio en el formato de la solicitud A3" style="points=[[0.25,0,0],[0.5,0,0],[0.75,0,0],[1,0.25,0],[1,0.5,0],[1,0.75,0],[0.75,1,0],[0.5,1,0],[0.25,1,0],[0,0.75,0],[0,0.5,0],[0,0.25,0]];shape=mxgraph.bpmn.task2;whiteSpace=wrap;rectStyle=rounded;size=10;html=1;container=1;expand=0;collapsible=0;taskMarker=user;fillColor=#fff2cc;strokeColor=#d6b656;" vertex="1" parent="IwLEYxxJopyAIarnTmrt-2">
          <mxGeometry x="120" y="45" width="120" height="80" as="geometry" />
        </mxCell>
        <mxCell id="IwLEYxxJopyAIarnTmrt-9" value="¿Servicio es = 320, &lt;br&gt;706, 744 o 745?" style="points=[[0.25,0.25,0],[0.5,0,0],[0.75,0.25,0],[1,0.5,0],[0.75,0.75,0],[0.5,1,0],[0.25,0.75,0],[0,0.5,0]];shape=mxgraph.bpmn.gateway2;html=1;verticalLabelPosition=top;labelBackgroundColor=#ffffff;verticalAlign=bottom;align=center;perimeter=rhombusPerimeter;outlineConnect=0;outline=none;symbol=none;fillColor=#d5e8d4;strokeColor=#82b366;labelPosition=center;fontSize=10;" vertex="1" parent="IwLEYxxJopyAIarnTmrt-2">
          <mxGeometry x="280" y="60" width="50" height="50" as="geometry" />
        </mxCell>
        <mxCell id="IwLEYxxJopyAIarnTmrt-8" style="edgeStyle=orthogonalEdgeStyle;rounded=0;orthogonalLoop=1;jettySize=auto;html=1;" edge="1" parent="IwLEYxxJopyAIarnTmrt-2" source="IwLEYxxJopyAIarnTmrt-6" target="IwLEYxxJopyAIarnTmrt-9">
          <mxGeometry relative="1" as="geometry">
            <mxPoint x="280" y="85" as="targetPoint" />
          </mxGeometry>
        </mxCell>
        <mxCell id="IwLEYxxJopyAIarnTmrt-11" value="Seleccionar tecnología asociada al servicio" style="points=[[0.25,0,0],[0.5,0,0],[0.75,0,0],[1,0.25,0],[1,0.5,0],[1,0.75,0],[0.75,1,0],[0.5,1,0],[0.25,1,0],[0,0.75,0],[0,0.5,0],[0,0.25,0]];shape=mxgraph.bpmn.task2;whiteSpace=wrap;rectStyle=rounded;size=10;html=1;container=1;expand=0;collapsible=0;taskMarker=user;fillColor=#fff2cc;strokeColor=#d6b656;" vertex="1" parent="IwLEYxxJopyAIarnTmrt-2">
          <mxGeometry x="390" y="45" width="120" height="80" as="geometry" />
        </mxCell>
        <mxCell id="IwLEYxxJopyAIarnTmrt-10" style="edgeStyle=orthogonalEdgeStyle;rounded=0;orthogonalLoop=1;jettySize=auto;html=1;" edge="1" parent="IwLEYxxJopyAIarnTmrt-2" source="IwLEYxxJopyAIarnTmrt-9" target="IwLEYxxJopyAIarnTmrt-11">
          <mxGeometry relative="1" as="geometry">
            <mxPoint x="380" y="85" as="targetPoint" />
          </mxGeometry>
        </mxCell>
        <mxCell id="IwLEYxxJopyAIarnTmrt-17" value="NO" style="edgeLabel;html=1;align=center;verticalAlign=middle;resizable=0;points=[];" vertex="1" connectable="0" parent="IwLEYxxJopyAIarnTmrt-10">
          <mxGeometry x="-0.16" y="1" relative="1" as="geometry">
            <mxPoint as="offset" />
          </mxGeometry>
        </mxCell>
        <mxCell id="IwLEYxxJopyAIarnTmrt-13" value="Continuar diligenciando formulario de solicitud A3" style="points=[[0.25,0,0],[0.5,0,0],[0.75,0,0],[1,0.25,0],[1,0.5,0],[1,0.75,0],[0.75,1,0],[0.5,1,0],[0.25,1,0],[0,0.75,0],[0,0.5,0],[0,0.25,0]];shape=mxgraph.bpmn.task2;whiteSpace=wrap;rectStyle=rounded;size=10;html=1;container=1;expand=0;collapsible=0;taskMarker=user;fillColor=#fff2cc;strokeColor=#d6b656;" vertex="1" parent="IwLEYxxJopyAIarnTmrt-2">
          <mxGeometry x="245" y="160" width="120" height="80" as="geometry" />
        </mxCell>
        <mxCell id="IwLEYxxJopyAIarnTmrt-12" style="edgeStyle=orthogonalEdgeStyle;rounded=0;orthogonalLoop=1;jettySize=auto;html=1;" edge="1" parent="IwLEYxxJopyAIarnTmrt-2" source="IwLEYxxJopyAIarnTmrt-9" target="IwLEYxxJopyAIarnTmrt-13">
          <mxGeometry relative="1" as="geometry">
            <mxPoint x="305" y="170" as="targetPoint" />
          </mxGeometry>
        </mxCell>
        <mxCell id="IwLEYxxJopyAIarnTmrt-16" value="SI" style="edgeLabel;html=1;align=center;verticalAlign=middle;resizable=0;points=[];" vertex="1" connectable="0" parent="IwLEYxxJopyAIarnTmrt-12">
          <mxGeometry x="-0.28" y="1" relative="1" as="geometry">
            <mxPoint as="offset" />
          </mxGeometry>
        </mxCell>
        <mxCell id="IwLEYxxJopyAIarnTmrt-15" value="Fin" style="points=[[0.145,0.145,0],[0.5,0,0],[0.855,0.145,0],[1,0.5,0],[0.855,0.855,0],[0.5,1,0],[0.145,0.855,0],[0,0.5,0]];shape=mxgraph.bpmn.event;html=1;verticalLabelPosition=bottom;labelBackgroundColor=#ffffff;verticalAlign=top;align=center;perimeter=ellipsePerimeter;outlineConnect=0;aspect=fixed;outline=end;symbol=terminate2;fillColor=#f8cecc;strokeColor=#b85450;" vertex="1" parent="IwLEYxxJopyAIarnTmrt-2">
          <mxGeometry x="400" y="175" width="50" height="50" as="geometry" />
        </mxCell>
        <mxCell id="IwLEYxxJopyAIarnTmrt-14" style="edgeStyle=orthogonalEdgeStyle;rounded=0;orthogonalLoop=1;jettySize=auto;html=1;" edge="1" parent="IwLEYxxJopyAIarnTmrt-2" source="IwLEYxxJopyAIarnTmrt-13" target="IwLEYxxJopyAIarnTmrt-15">
          <mxGeometry relative="1" as="geometry">
            <mxPoint x="410" y="180" as="targetPoint" />
          </mxGeometry>
        </mxCell>
        <mxCell id="IwLEYxxJopyAIarnTmrt-3" value="OASIS - ecnc" style="swimlane;html=1;startSize=20;horizontal=0;" vertex="1" parent="IwLEYxxJopyAIarnTmrt-1">
          <mxGeometry y="310" width="1660" height="290" as="geometry" />
        </mxCell>
        <mxCell id="IwLEYxxJopyAIarnTmrt-19" value="Consultar si existen contratos clase PGP o Cápita en estado PROCESADO y LEGALIZADO para el prestador" style="points=[[0.25,0,0],[0.5,0,0],[0.75,0,0],[1,0.25,0],[1,0.5,0],[1,0.75,0],[0.75,1,0],[0.5,1,0],[0.25,1,0],[0,0.75,0],[0,0.5,0],[0,0.25,0]];shape=mxgraph.bpmn.task2;whiteSpace=wrap;rectStyle=rounded;size=10;html=1;container=1;expand=0;collapsible=0;taskMarker=script;fillColor=#fff2cc;strokeColor=#d6b656;" vertex="1" parent="IwLEYxxJopyAIarnTmrt-3">
          <mxGeometry x="475" y="60" width="170" height="80" as="geometry" />
        </mxCell>
        <mxCell id="IwLEYxxJopyAIarnTmrt-21" value="¿Existe contrato?" style="points=[[0.25,0.25,0],[0.5,0,0],[0.75,0.25,0],[1,0.5,0],[0.75,0.75,0],[0.5,1,0],[0.25,0.75,0],[0,0.5,0]];shape=mxgraph.bpmn.gateway2;html=1;verticalLabelPosition=top;labelBackgroundColor=#ffffff;verticalAlign=bottom;align=center;perimeter=rhombusPerimeter;outlineConnect=0;outline=none;symbol=none;fillColor=#d5e8d4;strokeColor=#82b366;labelPosition=center;fontSize=10;" vertex="1" parent="IwLEYxxJopyAIarnTmrt-3">
          <mxGeometry x="690" y="75" width="50" height="50" as="geometry" />
        </mxCell>
        <mxCell id="IwLEYxxJopyAIarnTmrt-20" style="edgeStyle=orthogonalEdgeStyle;rounded=0;orthogonalLoop=1;jettySize=auto;html=1;" edge="1" parent="IwLEYxxJopyAIarnTmrt-3" source="IwLEYxxJopyAIarnTmrt-19" target="IwLEYxxJopyAIarnTmrt-21">
          <mxGeometry relative="1" as="geometry">
            <mxPoint x="700" y="100" as="targetPoint" />
          </mxGeometry>
        </mxCell>
        <mxCell id="IwLEYxxJopyAIarnTmrt-24" value="¿Tecnología se &lt;br&gt;encuentra &lt;br&gt;en el contrato?" style="points=[[0.25,0.25,0],[0.5,0,0],[0.75,0.25,0],[1,0.5,0],[0.75,0.75,0],[0.5,1,0],[0.25,0.75,0],[0,0.5,0]];shape=mxgraph.bpmn.gateway2;html=1;verticalLabelPosition=top;labelBackgroundColor=#ffffff;verticalAlign=bottom;align=center;perimeter=rhombusPerimeter;outlineConnect=0;outline=none;symbol=none;fillColor=#d5e8d4;strokeColor=#82b366;fontSize=10;labelPosition=center;" vertex="1" parent="IwLEYxxJopyAIarnTmrt-3">
          <mxGeometry x="805" y="75" width="50" height="50" as="geometry" />
        </mxCell>
        <mxCell id="IwLEYxxJopyAIarnTmrt-22" style="edgeStyle=orthogonalEdgeStyle;rounded=0;orthogonalLoop=1;jettySize=auto;html=1;" edge="1" parent="IwLEYxxJopyAIarnTmrt-3" source="IwLEYxxJopyAIarnTmrt-21" target="IwLEYxxJopyAIarnTmrt-24">
          <mxGeometry relative="1" as="geometry">
            <mxPoint x="790" y="100" as="targetPoint" />
          </mxGeometry>
        </mxCell>
        <mxCell id="IwLEYxxJopyAIarnTmrt-23" value="SI" style="edgeLabel;html=1;align=center;verticalAlign=middle;resizable=0;points=[];" vertex="1" connectable="0" parent="IwLEYxxJopyAIarnTmrt-22">
          <mxGeometry x="-0.0496" y="-1" relative="1" as="geometry">
            <mxPoint as="offset" />
          </mxGeometry>
        </mxCell>
        <mxCell id="IwLEYxxJopyAIarnTmrt-26" value="¿Contrato tiene &lt;br&gt;municipios activos &lt;br&gt;en &quot;Ubicaciones&quot;?" style="points=[[0.25,0.25,0],[0.5,0,0],[0.75,0.25,0],[1,0.5,0],[0.75,0.75,0],[0.5,1,0],[0.25,0.75,0],[0,0.5,0]];shape=mxgraph.bpmn.gateway2;html=1;verticalLabelPosition=top;labelBackgroundColor=#ffffff;verticalAlign=bottom;align=center;perimeter=rhombusPerimeter;outlineConnect=0;outline=none;symbol=none;fillColor=#d5e8d4;strokeColor=#82b366;fontSize=10;labelPosition=center;" vertex="1" parent="IwLEYxxJopyAIarnTmrt-3">
          <mxGeometry x="920" y="75" width="50" height="50" as="geometry" />
        </mxCell>
        <mxCell id="IwLEYxxJopyAIarnTmrt-25" style="edgeStyle=orthogonalEdgeStyle;rounded=0;orthogonalLoop=1;jettySize=auto;html=1;" edge="1" parent="IwLEYxxJopyAIarnTmrt-3" source="IwLEYxxJopyAIarnTmrt-24" target="IwLEYxxJopyAIarnTmrt-26">
          <mxGeometry relative="1" as="geometry">
            <mxPoint x="920" y="100" as="targetPoint" />
          </mxGeometry>
        </mxCell>
        <mxCell id="IwLEYxxJopyAIarnTmrt-27" value="SI" style="edgeLabel;html=1;align=center;verticalAlign=middle;resizable=0;points=[];" vertex="1" connectable="0" parent="IwLEYxxJopyAIarnTmrt-25">
          <mxGeometry x="-0.12" y="-1" relative="1" as="geometry">
            <mxPoint as="offset" />
          </mxGeometry>
        </mxCell>
        <mxCell id="IwLEYxxJopyAIarnTmrt-29" value="¿Municipio atención &lt;br&gt;afiliado se encuentra &lt;br&gt;en las ubicaciones?" style="points=[[0.25,0.25,0],[0.5,0,0],[0.75,0.25,0],[1,0.5,0],[0.75,0.75,0],[0.5,1,0],[0.25,0.75,0],[0,0.5,0]];shape=mxgraph.bpmn.gateway2;html=1;verticalLabelPosition=top;labelBackgroundColor=#ffffff;verticalAlign=bottom;align=center;perimeter=rhombusPerimeter;outlineConnect=0;outline=none;symbol=none;fillColor=#d5e8d4;strokeColor=#82b366;fontSize=10;labelPosition=center;" vertex="1" parent="IwLEYxxJopyAIarnTmrt-3">
          <mxGeometry x="1030" y="75" width="50" height="50" as="geometry" />
        </mxCell>
        <mxCell id="IwLEYxxJopyAIarnTmrt-28" style="edgeStyle=orthogonalEdgeStyle;rounded=0;orthogonalLoop=1;jettySize=auto;html=1;" edge="1" parent="IwLEYxxJopyAIarnTmrt-3" source="IwLEYxxJopyAIarnTmrt-26" target="IwLEYxxJopyAIarnTmrt-29">
          <mxGeometry relative="1" as="geometry">
            <mxPoint x="990" y="100" as="targetPoint" />
          </mxGeometry>
        </mxCell>
        <mxCell id="IwLEYxxJopyAIarnTmrt-30" value="SI" style="edgeLabel;html=1;align=center;verticalAlign=middle;resizable=0;points=[];" vertex="1" connectable="0" parent="IwLEYxxJopyAIarnTmrt-28">
          <mxGeometry x="-0.2" relative="1" as="geometry">
            <mxPoint as="offset" />
          </mxGeometry>
        </mxCell>
        <mxCell id="IwLEYxxJopyAIarnTmrt-31" value="" style="points=[[0.25,0.25,0],[0.5,0,0],[0.75,0.25,0],[1,0.5,0],[0.75,0.75,0],[0.5,1,0],[0.25,0.75,0],[0,0.5,0]];shape=mxgraph.bpmn.gateway2;html=1;verticalLabelPosition=bottom;labelBackgroundColor=#ffffff;verticalAlign=top;align=center;perimeter=rhombusPerimeter;outlineConnect=0;outline=end;symbol=general;" vertex="1" parent="IwLEYxxJopyAIarnTmrt-3">
          <mxGeometry x="1030" y="210" width="50" height="50" as="geometry" />
        </mxCell>
        <mxCell id="IwLEYxxJopyAIarnTmrt-4" value="Lane 3" style="swimlane;html=1;startSize=20;horizontal=0;" vertex="1" parent="IwLEYxxJopyAIarnTmrt-1">
          <mxGeometry y="600" width="1660" height="120" as="geometry" />
        </mxCell>
        <mxCell id="IwLEYxxJopyAIarnTmrt-18" style="edgeStyle=orthogonalEdgeStyle;rounded=0;orthogonalLoop=1;jettySize=auto;html=1;" edge="1" parent="IwLEYxxJopyAIarnTmrt-1" source="IwLEYxxJopyAIarnTmrt-11" target="IwLEYxxJopyAIarnTmrt-19">
          <mxGeometry relative="1" as="geometry">
            <mxPoint x="550" y="390" as="targetPoint" />
            <Array as="points">
              <mxPoint x="560" y="105" />
            </Array>
          </mxGeometry>
        </mxCell>
      </root>
    </mxGraphModel>
  </diagram>
</mxfile>
